<svg xmlns="http://www.w3.org/2000/svg" xmlns:xlink="http://www.w3.org/1999/xlink" width="300" height="60" viewBox="0 0 300 60" fill="none">
<rect x="0" y="0" width="0" height="0" fill="rgba(249, 249, 249, 1)" />
<path     fill="#FFFFFF"  d="M0 60L300 60L300 0L0 0L0 60Z">
</path>
<g >
<path     fill="#000000"  d="M57.432 44.88Q55.944 44.88 54.504 44.784Q53.064 44.688 51.768 44.496Q50.472 44.304 49.416 44.112Q48.36 43.92 47.64 43.68L47.64 38.064Q48.408 38.352 49.512 38.592Q50.616 38.832 51.888 39.024Q53.16 39.216 54.528 39.336Q55.896 39.456 57.24 39.456Q60.696 39.456 62.184 38.472Q63.672 37.488 63.672 34.944Q63.672 33.792 63.408 33Q63.144 32.208 62.424 31.608Q61.704 31.008 60.432 30.552Q59.16 30.096 57.096 29.568Q54.456 28.944 52.704 28.224Q50.952 27.504 49.872 26.424Q48.792 25.344 48.336 23.832Q47.88 22.32 47.88 20.112Q47.88 15.024 50.88 12.792Q53.88 10.56 59.688 10.56Q62.376 10.56 64.632 10.92Q66.888 11.28 68.184 11.76L68.184 17.088Q67.512 16.848 66.552 16.632Q65.592 16.416 64.464 16.224Q63.336 16.032 62.136 15.936Q60.936 15.84 59.88 15.84Q56.856 15.84 55.44 16.656Q54.024 17.472 54.024 19.968Q54.024 20.928 54.216 21.576Q54.408 22.224 55.056 22.728Q55.704 23.232 56.904 23.664Q58.104 24.096 60.072 24.576Q63 25.296 64.896 26.112Q66.792 26.928 67.896 28.128Q69 29.328 69.456 31.008Q69.912 32.688 69.912 35.04Q69.912 39.936 66.936 42.408Q63.96 44.88 57.432 44.88ZM79.272 14.496Q78.264 14.496 77.616 14.4Q76.968 14.304 76.56 13.944Q76.152 13.584 76.008 12.96Q75.864 12.336 75.864 11.232Q75.864 10.128 76.008 9.48Q76.152 8.832 76.56 8.52Q76.968 8.208 77.616 8.112Q78.264 8.016 79.272 8.016Q80.28 8.016 80.928 8.112Q81.576 8.208 81.984 8.52Q82.392 8.832 82.536 9.48Q82.68 10.128 82.68 11.232Q82.68 12.336 82.536 12.96Q82.392 13.584 81.984 13.944Q81.576 14.304 80.928 14.4Q80.28 14.496 79.272 14.496ZM76.248 18.48L82.248 18.48L82.248 44.4L76.248 44.4L76.248 18.48ZM112.968 18.48L112.968 42.432Q112.968 45.12 112.224 47.256Q111.48 49.392 109.848 50.904Q108.216 52.416 105.6 53.208Q102.984 54 99.192 54Q97.464 54 95.544 53.808Q93.624 53.616 92.184 53.376L92.184 48.528Q93.672 48.912 95.424 49.08Q97.176 49.248 98.856 49.248Q103.128 49.248 105.072 47.664Q107.016 46.08 107.016 42.144L107.016 40.32Q106.2 42.24 104.4 43.32Q102.6 44.4 99 44.4Q95.832 44.4 93.768 43.44Q91.704 42.48 90.504 40.752Q89.304 39.024 88.848 36.6Q88.392 34.176 88.392 31.2Q88.392 28.512 88.848 26.112Q89.304 23.712 90.504 21.912Q91.704 20.112 93.768 19.056Q95.832 18 99 18Q100.824 18 102.168 18.312Q103.512 18.624 104.472 19.176Q105.432 19.728 106.032 20.52Q106.632 21.312 107.016 22.272L107.016 18.48L112.968 18.48ZM100.536 39.888Q102.6 39.888 103.92 39.312Q105.24 38.736 105.984 37.608Q106.728 36.48 106.992 34.872Q107.256 33.264 107.256 31.2Q107.256 29.232 106.992 27.648Q106.728 26.064 105.984 24.936Q105.24 23.808 103.92 23.208Q102.6 22.608 100.536 22.608Q98.52 22.608 97.368 23.328Q96.216 24.048 95.592 25.224Q94.968 26.4 94.8 27.96Q94.632 29.52 94.632 31.2Q94.632 33.024 94.824 34.584Q95.016 36.144 95.64 37.344Q96.264 38.544 97.416 39.216Q98.568 39.888 100.536 39.888ZM134.568 18Q137.736 18 139.776 18.96Q141.816 19.92 142.992 21.672Q144.168 23.424 144.6 25.92Q145.032 28.416 145.032 31.44Q145.032 34.176 144.6 36.624Q144.168 39.072 142.992 40.92Q141.816 42.768 139.776 43.824Q137.736 44.88 134.568 44.88Q130.968 44.88 129.168 43.752Q127.368 42.624 126.552 40.704L126.552 54L120.552 54L120.552 18.48L126.552 18.48L126.552 22.128Q127.368 20.4 129.192 19.2Q131.016 18 134.568 18ZM132.936 40.224Q134.904 40.224 136.08 39.504Q137.256 38.784 137.856 37.584Q138.456 36.384 138.648 34.776Q138.84 33.168 138.84 31.44Q138.84 29.568 138.648 27.96Q138.456 26.352 137.832 25.152Q137.208 23.952 136.032 23.28Q134.856 22.608 132.936 22.608Q130.968 22.608 129.672 23.208Q128.376 23.808 127.608 24.936Q126.84 26.064 126.528 27.72Q126.216 29.376 126.216 31.44Q126.216 33.456 126.528 35.064Q126.84 36.672 127.608 37.824Q128.376 38.976 129.672 39.6Q130.968 40.224 132.936 40.224ZM165.384 18Q167.832 18 169.488 18.576Q171.144 19.152 172.152 20.256Q173.16 21.36 173.592 22.968Q174.024 24.576 174.024 26.64L174.024 44.4L168.024 44.4L168.024 28.32Q168.024 25.584 167.136 24.288Q166.248 22.992 163.56 22.992Q161.304 22.992 159.624 23.88Q157.944 24.768 157.224 27.264L157.224 44.4L151.224 44.4L151.224 7.92L157.224 7.92L157.224 21.84Q158.328 19.776 160.512 18.888Q162.696 18 165.384 18ZM192.12 18Q195.288 18 197.448 18.576Q199.608 19.152 200.928 20.208Q202.248 21.264 202.8 22.824Q203.352 24.384 203.352 26.304L203.352 44.4L198.024 44.4L197.4 41.088Q196.44 42.768 194.16 43.824Q191.88 44.88 188.76 44.88Q179.88 44.88 179.88 37.056Q179.88 32.496 182.616 30.648Q185.352 28.8 190.392 28.8L197.352 28.8L197.352 27.648Q197.352 26.496 197.112 25.632Q196.872 24.768 196.224 24.192Q195.576 23.616 194.424 23.328Q193.272 23.04 191.496 23.04Q190.104 23.04 188.712 23.184Q187.32 23.328 185.928 23.568L185.928 18.432Q187.416 18.192 189.072 18.096Q190.728 18 192.12 18ZM190.056 40.176Q192.792 40.176 194.664 39.168Q196.536 38.16 197.352 36.48L197.352 33.072L191.208 33.072Q188.376 33.072 187.104 33.816Q185.832 34.56 185.832 36.864Q185.832 38.544 186.816 39.36Q187.8 40.176 190.056 40.176ZM217.8 44.688Q215.64 44.688 213.48 44.472Q211.32 44.256 209.784 43.872L209.784 38.832Q211.464 39.36 213.6 39.672Q215.736 39.984 217.512 39.984Q220.008 39.984 221.208 39.36Q222.408 38.736 222.408 36.912Q222.408 36 222.192 35.4Q221.976 34.8 221.4 34.368Q220.824 33.936 219.792 33.6Q218.76 33.264 217.128 32.88Q215.016 32.4 213.672 31.776Q212.328 31.152 211.536 30.312Q210.744 29.472 210.432 28.296Q210.12 27.12 210.12 25.488Q210.12 21.984 212.472 19.992Q214.824 18 220.104 18Q222.168 18 224.112 18.24Q226.056 18.48 227.016 18.864L226.728 23.568Q225.672 23.184 223.872 22.896Q222.072 22.608 220.296 22.608Q217.8 22.608 216.768 23.208Q215.736 23.808 215.736 25.44Q215.736 26.208 215.928 26.688Q216.12 27.168 216.648 27.504Q217.176 27.84 218.112 28.128Q219.048 28.416 220.584 28.8Q222.744 29.328 224.184 29.952Q225.624 30.576 226.488 31.464Q227.352 32.352 227.712 33.624Q228.072 34.896 228.072 36.72Q228.072 41.088 225.384 42.888Q222.696 44.688 217.8 44.688ZM256.248 29.184Q256.248 30.144 256.176 31.032Q256.104 31.92 256.008 32.592L239.016 33.696Q239.112 36.96 240.84 38.496Q242.568 40.032 246.456 40.032Q247.608 40.032 248.832 39.888Q250.056 39.744 251.184 39.48Q252.312 39.216 253.272 38.904Q254.232 38.592 254.904 38.256L254.904 43.152Q253.752 43.824 251.16 44.352Q248.568 44.88 245.4 44.88Q242.424 44.88 240.12 44.256Q237.816 43.632 236.232 42.096Q234.648 40.56 233.808 37.968Q232.968 35.376 232.968 31.44Q232.968 27.504 233.808 24.912Q234.648 22.32 236.232 20.784Q237.816 19.248 240.12 18.624Q242.424 18 245.4 18Q248.76 18 250.872 18.888Q252.984 19.776 254.184 21.312Q255.384 22.848 255.816 24.864Q256.248 26.88 256.248 29.184ZM250.68 28.56Q250.68 27.36 250.512 26.28Q250.344 25.2 249.768 24.384Q249.192 23.568 248.16 23.088Q247.128 22.608 245.4 22.608Q243.576 22.608 242.376 23.04Q241.176 23.472 240.456 24.336Q239.736 25.2 239.4 26.472Q239.064 27.744 239.016 29.424L250.68 28.56Z">
</path>
</g>
</svg>
